HIERARCHY
ROOT Hips
{
	OFFSET	0.00	0.00	0.00
	CHANNELS 6 Xposition Yposition Zposition Zrotation Xrotation Yrotation
	JOINT LeftUpLeg
	{
		OFFSET	 0.126116	-0.014019	-0.065224
		CHANNELS 3 Zrotation Xrotation Yrotation
		JOINT LeftLeg
		{
			OFFSET	 0.000000	 0.000000	 0.569914
			CHANNELS 3 Zrotation Xrotation Yrotation
			JOINT LeftFoot
			{
				OFFSET	 0.000000	 0.000000	 0.544423
				CHANNELS 3 Zrotation Xrotation Yrotation
				JOINT LeftToeBase
				{
					OFFSET	 0.000000	 0.000000	 0.207117
					CHANNELS 3 Zrotation Xrotation Yrotation
					End Site
					{
						OFFSET	 0.000000	 0.000000	 0.207117
					}
				}
			}
		}
	}
	JOINT RightUpLeg
	{
		OFFSET	-0.124023	-0.008373	-0.065224
		CHANNELS 3 Zrotation Xrotation Yrotation
		JOINT RightLeg
		{
			OFFSET	 0.000000	 0.000000	 0.570047
			CHANNELS 3 Zrotation Xrotation Yrotation
			JOINT RightFoot
			{
				OFFSET	 0.000000	 0.000000	 0.544354
				CHANNELS 3 Zrotation Xrotation Yrotation
				JOINT RightToeBase
				{
					OFFSET	 0.000000	 0.000000	 0.207540
					CHANNELS 3 Zrotation Xrotation Yrotation
					End Site
					{
						OFFSET	 0.000000	 0.000000	 0.207540
					}
				}
			}
		}
	}
	JOINT Spine
	{
		OFFSET	 0.000184	-0.007763	 0.117403
		CHANNELS 3 Zrotation Xrotation Yrotation
		JOINT Spine1
		{
			OFFSET	 0.000000	 0.000000	 0.137269
			CHANNELS 3 Zrotation Xrotation Yrotation
			JOINT Spine2
			{
				OFFSET	 0.000000	 0.000000	 0.156879
				CHANNELS 3 Zrotation Xrotation Yrotation
				JOINT LeftShoulder
				{
					OFFSET	 0.080501	-0.002496	 0.160144
					CHANNELS 3 Zrotation Xrotation Yrotation
					JOINT LeftArm
					{
						OFFSET	 0.000000	 0.000000	 0.164363
						CHANNELS 3 Zrotation Xrotation Yrotation
						JOINT LeftForeArm
						{
							OFFSET	 0.000000	 0.000000	 0.364576
							CHANNELS 3 Zrotation Xrotation Yrotation
							JOINT LeftHand
							{
								OFFSET	 0.000000	 0.000000	 0.360812
								CHANNELS 3 Zrotation Xrotation Yrotation
								JOINT LeftHandIndex1
								{
									OFFSET	 0.000000	 0.000000	 0.086006
									CHANNELS 3 Zrotation Xrotation Yrotation
									JOINT LeftHandIndex2
									{
										OFFSET	 0.000000	 0.000000	 0.047236
										CHANNELS 3 Zrotation Xrotation Yrotation
										JOINT LeftHandIndex3
										{
											OFFSET	-0.004284	-0.000551	 0.038166
											CHANNELS 3 Zrotation Xrotation Yrotation
											End Site
											{
												OFFSET	-0.004284	-0.000551	 0.038166
											}
										}
									}
								}
							}
						}
					}
				}
				JOINT Neck
				{
					OFFSET	 0.000000	 0.000000	 0.176489
					CHANNELS 3 Zrotation Xrotation Yrotation
					JOINT Head
					{
						OFFSET	 0.000000	-0.001747	 0.077940
						CHANNELS 3 Zrotation Xrotation Yrotation
						End Site
						{
							OFFSET	 0.000000	-0.001747	 0.077940
						}
					}
				}
				JOINT RightShoulder
				{
					OFFSET	-0.080363	 0.000306	 0.159706
					CHANNELS 3 Zrotation Xrotation Yrotation
					JOINT RightArm
					{
						OFFSET	 0.000000	 0.000000	 0.164196
						CHANNELS 3 Zrotation Xrotation Yrotation
						JOINT RightForeArm
						{
							OFFSET	 0.000000	 0.000000	 0.365611
							CHANNELS 3 Zrotation Xrotation Yrotation
							JOINT RightHand
							{
								OFFSET	 0.000000	 0.000000	 0.360648
								CHANNELS 3 Zrotation Xrotation Yrotation
								JOINT RightHandIndex1
								{
									OFFSET	 0.000000	 0.000000	 0.069977
									CHANNELS 3 Zrotation Xrotation Yrotation
									JOINT RightHandIndex2
									{
										OFFSET	 0.000000	 0.000000	 0.052305
										CHANNELS 3 Zrotation Xrotation Yrotation
										JOINT RightHandIndex3
										{
											OFFSET	 0.009002	-0.000782	 0.042196
											CHANNELS 3 Zrotation Xrotation Yrotation
											End Site
											{
												OFFSET	 0.009002	-0.000782	 0.042196
											}
										}
									}
								}
							}
						}
					}
				}
			}
		}
	}
}
MOTION
Frames:    4
Frame Time: 0.03333334
 0.012995	 0.042575	 1.201002	 5.060509	-1.045743	-2.728240	 3.109004	-11.604280	-172.862600	 1.018183	-39.131890	 0.419986	 56.359380	 81.697830	-60.553620	-2.369496	 31.599090	-0.069568	-9.217499	-31.493080	-175.883500	 10.758770	-50.493610	 8.934262	 17.767820	 76.869630	-13.958190	 2.358900	 33.009760	 0.103456	-7.701838	 8.450543	 2.024538	-2.067214	 2.177464	-1.424297	 3.191662	-2.435635	 1.597483	-93.967580	 58.957980	 175.327000	 17.182260	 35.773780	-37.571220	-1.826203	-0.045547	-0.802556	-1.168322	-19.660640	-8.136814	-4.869890	 19.249750	-2.791404	-3.877991	 21.518020	 2.199165	-4.806110	 5.570817	 0.145489	-0.068404	-5.083474	 0.189129	 1.074643	 1.717690	 2.689297	 89.770550	 61.659830	 179.972400	-19.984160	 52.760300	 12.299260	-1.335275	-1.369939	 7.538855	-4.478198	-4.943110	 0.570686	 6.291061	 24.602970	-0.536923	 1.918597	 44.431740	-7.022593	 0.572019	 24.075110	 3.545151
 0.011399	 0.010764	 1.199077	 5.853858	-0.293127	-2.776788	 2.340201	-10.626340	-173.113600	 1.339714	-38.756220	 0.617903	 61.521340	 82.394210	-65.952250	-2.368147	 31.823410	-0.074647	-11.646400	-34.112480	-176.468900	 11.099360	-45.989360	 8.586884	 25.249510	 79.928050	-22.573670	 2.359052	 32.988770	 0.102957	-9.169192	 7.851092	 1.781852	-2.103285	 2.414969	-1.161462	 2.907538	-3.080003	 1.472374	-94.164790	 58.989950	 174.902300	 16.471970	 33.773990	-38.693770	-2.543551	-0.032570	-1.075971	-1.133228	-20.699960	-9.043468	-4.862957	 19.427140	-2.803036	-3.866842	 21.660280	 2.187829	-4.803604	 5.600406	 0.143750	-0.027866	-5.113053	 0.247185	 0.901493	 1.436726	 2.559434	 89.693970	 61.798380	 179.788800	-19.508270	 53.677770	 9.822474	-1.546031	-1.531805	 8.530723	-4.421319	-5.134035	 0.315879	 6.271589	 23.218610	-0.556325	 2.080125	 43.077430	-7.165797	 0.870364	 22.746300	 3.397620
 0.009605	-0.035109	 1.195812	 6.353170	 0.533342	-3.154254	 1.836645	-8.524623	-173.183100	 1.558074	-37.558160	 0.734807	 70.467120	 83.256130	-75.061060	-2.365620	 32.227020	-0.083866	-13.101780	-36.226390	-176.945900	 10.861680	-37.793920	 7.182161	 25.914500	 78.688320	-24.604630	 2.361292	 32.652800	 0.095185	-10.602660	 7.035233	 1.804188	-2.117912	 3.110166	-0.789640	 2.500597	-3.918996	 1.232107	-94.361060	 58.985530	 174.484700	 15.078150	 31.180810	-40.265370	-3.903511	-0.006411	-1.412767	-1.552696	-22.275920	-8.865541	-4.846848	 19.795440	-2.818632	-3.849181	 21.884400	 2.169891	-4.794123	 5.712019	 0.137211	-0.005775	-5.181020	 0.312496	 0.547335	 1.138057	 2.499249	 89.561700	 61.955330	 179.468500	-18.748210	 54.570990	 7.465253	-2.269445	-1.452555	 8.055686	-4.751984	-5.325825	-0.554388	 6.239610	 21.333220	-0.618232	 2.252710	 41.550110	-7.317504	 1.294443	 20.805070	 3.197971
 0.007243	-0.084443	 1.190663	 6.524573	 0.984132	-3.557365	 1.530741	-5.623259	-173.305600	 1.670701	-35.978740	 0.774385	 77.938460	 83.977570	-82.569600	-2.358729	 33.270740	-0.107949	-12.584950	-36.726260	-176.903400	 9.892537	-28.401800	 5.111482	 44.439610	 80.345930	-43.860460	 2.352655	 33.897120	 0.124224	-11.977080	 6.313339	 1.933536	-2.069627	 4.264542	-0.421683	 2.040165	-4.850317	 0.945273	-94.471420	 58.962360	 174.253100	 13.376890	 29.115890	-41.658060	-5.209572	 0.027375	-1.768144	-2.364973	-23.421890	-8.525507	-4.825682	 20.218520	-2.822696	-3.825032	 22.188890	 2.145359	-4.771045	 5.983043	 0.121235	 0.023087	-5.277953	 0.342756	 0.117607	 0.820204	 2.406579	 89.446410	 62.046870	 179.187900	-17.511370	 55.083670	 5.719144	-3.253861	-1.000241	 5.943178	-5.122244	-5.817802	-1.976913	 6.196233	 19.065000	-0.708768	 2.532555	 38.882000	-7.560258	 1.772680	 18.543820	 2.987679
